<svg width="128" height="33" viewBox="0 0 128 33" fill="none" xmlns="http://www.w3.org/2000/svg">
<g id="Plooto">
<path d="M0.648648 31.8725C0.290409 31.8725 0 31.5821 0 31.2239V1.14865C0 0.790409 0.29041 0.5 0.648649 0.5H12.8729C14.8396 0.5 16.5679 0.903361 18.0579 1.71008C19.5776 2.48693 20.7546 3.59244 21.589 5.02661C22.4531 6.46078 22.8852 8.16387 22.8852 10.1359V10.7633C22.8852 12.7054 22.4382 14.4085 21.5443 15.8725C20.6801 17.3067 19.4882 18.4272 17.9685 19.2339C16.4785 20.0107 14.78 20.3992 12.8729 20.3992H6.54874C6.19051 20.3992 5.9001 20.6896 5.9001 21.0478V31.2239C5.9001 31.5821 5.60969 31.8725 5.25145 31.8725H0.648648ZM5.9001 14.3724C5.9001 14.7306 6.19051 15.021 6.54874 15.021H12.2919C13.6924 15.021 14.8247 14.6326 15.6889 13.8557C16.553 13.0789 16.9851 12.0182 16.9851 10.6737V10.2255C16.9851 8.88095 16.553 7.82026 15.6889 7.04342C14.8247 6.26657 13.6924 5.87815 12.2919 5.87815H6.54874C6.19051 5.87815 5.9001 6.16856 5.9001 6.5268V14.3724Z" fill="#001234"/>
<path d="M49.3458 32.5C47.1407 32.5 45.1591 32.0518 43.401 31.1555C41.6429 30.2591 40.2572 28.9594 39.2441 27.2563C38.2309 25.5532 37.7244 23.5065 37.7244 21.1162V20.3992C37.7244 18.0089 38.2309 15.9622 39.2441 14.2591C40.2572 12.556 41.6429 11.2563 43.401 10.3599C45.1591 9.46358 47.1407 9.0154 49.3458 9.0154C51.5509 9.0154 53.5324 9.46358 55.2906 10.3599C57.0487 11.2563 58.4343 12.556 59.4474 14.2591C60.4606 15.9622 60.9672 18.0089 60.9672 20.3992V21.1162C60.9672 23.5065 60.4606 25.5532 59.4474 27.2563C58.4343 28.9594 57.0487 30.2591 55.2906 31.1555C53.5324 32.0518 51.5509 32.5 49.3458 32.5ZM49.3458 27.4804C51.0741 27.4804 52.5044 26.9276 53.6367 25.8221C54.7691 24.6867 55.3353 23.0733 55.3353 20.9818V20.5336C55.3353 18.4421 54.7691 16.8436 53.6367 15.7381C52.5342 14.6027 51.1039 14.035 49.3458 14.035C47.6175 14.035 46.1871 14.6027 45.0548 15.7381C43.9225 16.8436 43.3563 18.4421 43.3563 20.5336V20.9818C43.3563 23.0733 43.9225 24.6867 45.0548 25.8221C46.1871 26.9276 47.6175 27.4804 49.3458 27.4804Z" fill="#001234"/>
<path d="M74.7054 32.5C72.5004 32.5 70.5188 32.0518 68.7607 31.1555C67.0025 30.2591 65.6169 28.9594 64.6038 27.2563C63.5906 25.5532 63.084 23.5065 63.084 21.1162V20.3992C63.084 18.0089 63.5906 15.9622 64.6038 14.2591C65.6169 12.556 67.0025 11.2563 68.7607 10.3599C70.5188 9.46358 72.5004 9.0154 74.7054 9.0154C76.9105 9.0154 78.8921 9.46358 80.6502 10.3599C82.4083 11.2563 83.794 12.556 84.8071 14.2591C85.8203 15.9622 86.3268 18.0089 86.3268 20.3992V21.1162C86.3268 23.5065 85.8203 25.5532 84.8071 27.2563C83.794 28.9594 82.4083 30.2591 80.6502 31.1555C78.8921 32.0518 76.9105 32.5 74.7054 32.5ZM74.7054 27.4804C76.4338 27.4804 77.8641 26.9276 78.9964 25.8221C80.1288 24.6867 80.6949 23.0733 80.6949 20.9818V20.5336C80.6949 18.4421 80.1288 16.8436 78.9964 15.7381C77.8939 14.6027 76.4636 14.035 74.7054 14.035C72.9771 14.035 71.5468 14.6027 70.4145 15.7381C69.2821 16.8436 68.716 18.4421 68.716 20.5336V20.9818C68.716 23.0733 69.2821 24.6867 70.4145 25.8221C71.5468 26.9276 72.9771 27.4804 74.7054 27.4804Z" fill="#001234"/>
<path d="M97.1213 31.8725C95.6612 31.8725 94.4693 31.4244 93.5455 30.528C92.6516 29.6018 92.2046 28.3768 92.2046 26.8529V14.9526C92.2046 14.5943 91.9142 14.3039 91.5559 14.3039H87.3107C86.9525 14.3039 86.6621 14.0135 86.6621 13.6553V10.2915C86.6621 9.93327 86.9525 9.64286 87.3107 9.64286H91.5559C91.9142 9.64286 92.2046 9.35245 92.2046 8.99421V3.38954C92.2046 3.03131 92.495 2.7409 92.8532 2.7409H97.1879C97.5461 2.7409 97.8365 3.03131 97.8365 3.38955V8.99421C97.8365 9.35245 98.1269 9.64286 98.4851 9.64286H103.267C103.625 9.64286 103.915 9.93327 103.915 10.2915V13.6553C103.915 14.0135 103.625 14.3039 103.267 14.3039H98.4851C98.1269 14.3039 97.8365 14.5943 97.8365 14.9526V25.8669C97.8365 26.7633 98.2537 27.2115 99.088 27.2115H102.73C103.089 27.2115 103.379 27.5019 103.379 27.8601V31.2239C103.379 31.5821 103.089 31.8725 102.73 31.8725H97.1213Z" fill="#001234"/>
<path d="M116.163 32.5C113.957 32.5 111.976 32.0518 110.218 31.1555C108.46 30.2591 107.074 28.9594 106.061 27.2563C105.048 25.5532 104.541 23.5065 104.541 21.1162V20.3992C104.541 18.0089 105.048 15.9622 106.061 14.2591C107.074 12.556 108.46 11.2563 110.218 10.3599C111.976 9.46358 113.957 9.0154 116.163 9.0154C118.368 9.0154 120.349 9.46358 122.107 10.3599C123.865 11.2563 125.251 12.556 126.264 14.2591C127.277 15.9622 127.784 18.0089 127.784 20.3992V21.1162C127.784 23.5065 127.277 25.5532 126.264 27.2563C125.251 28.9594 123.865 30.2591 122.107 31.1555C120.349 32.0518 118.368 32.5 116.163 32.5ZM116.163 27.4804C117.891 27.4804 119.321 26.9276 120.454 25.8221C121.586 24.6867 122.152 23.0733 122.152 20.9818V20.5336C122.152 18.4421 121.586 16.8436 120.454 15.7381C119.351 14.6027 117.921 14.035 116.163 14.035C114.434 14.035 113.004 14.6027 111.872 15.7381C110.739 16.8436 110.173 18.4421 110.173 20.5336V20.9818C110.173 23.0733 110.739 24.6867 111.872 25.8221C113.004 26.9276 114.434 27.4804 116.163 27.4804Z" fill="#001234"/>
<path d="M30.2156 31.8725C28.7554 31.8725 27.5635 31.4244 26.6398 30.528C25.7458 29.6018 25.2988 28.3768 25.2988 26.8529V14.3039V9.64286V1.14865C25.2988 0.790411 25.5893 0.5 25.9475 0.5H30.2821C30.6403 0.5 30.9307 0.79041 30.9307 1.14865V9.64286V14.3039V25.8669C30.9307 26.7633 31.3479 27.2115 32.1823 27.2115H35.8246C36.1828 27.2115 36.4732 27.5019 36.4732 27.8601V31.2239C36.4732 31.5821 36.1828 31.8725 35.8246 31.8725H30.2156Z" fill="#001234"/>
</g>
</svg>
